<svg version="1" xmlns="http://www.w3.org/2000/svg" width="933.333" height="933.333" viewBox="0 0 700.000000 700.000000"><path d="M327.8.4c-.1.2-4.1.6-8.8 1-8.7.7-10.5.9-22.5 2.7-11.6 1.8-12.3 1.9-19.2 3.5-22.8 5.1-37.4 9.5-55.3 16.6-12.4 5-36.2 16.3-45.2 21.5-11.2 6.6-19.6 11.9-24.9 15.7-3.2 2.3-6.7 4.8-7.9 5.6-1.3.8-5.9 4.4-10.4 7.9-54.3 43-94 99.5-116 165.3-3.1 9.4-7.9 26.7-9.1 32.9-.3 1.3-1.1 5.8-2 9.9-2.9 14.7-3.5 19.3-5.2 37-1.5 16.2-.8 59.2 1.2 71.1.2 1.3.6 4.6.9 7.4 1 8.2 1.2 9.6 5.2 29 .2 1.1 1.7 6.9 3.4 13 1.6 6 3.2 11.7 3.4 12.5.7 2.6 3.7 11.4 4.5 13.5.5 1.1 2.6 6.5 4.6 12 6.4 16.8 24.9 53.1 31.2 61 .4.6 3.4 4.9 6.5 9.5 17 25.5 43.3 53.5 70.8 75.5 9.2 7.4 37 26.5 38.6 26.5.4 0 1.5.6 2.3 1.4 2.9 2.5 30.4 16.1 43.1 21.3 16.5 6.8 42.5 15 56.3 17.9 9.2 1.9 21.1 4.1 27.2 4.9 2.2.2 5.6.7 7.5 1 18.7 2.6 69.7 2.7 83.8 0 1.6-.3 10.4-1.5 14.7-2 28.4-3.6 76.5-19.7 106.2-35.6 14.7-7.8 35-20.4 42.4-26.3 1.5-1.2 3.9-3 5.4-4.1 15.2-10.9 42.2-36.1 54-50.5 2.1-2.5 4.1-4.7 4.5-5 1.7-1.2 17.9-23.3 24.5-33.5 21.9-33.6 40.6-77.9 48.1-114 1.6-7.9 5.4-30.1 5.9-35 .4-3.3.9-7.1 1.1-8.5.9-4.6 1.1-52.4.4-60.5-1.2-12.8-2.1-20.2-2.5-22.7-.3-1.3-.8-4.3-1.1-6.8-1.6-11.8-8.6-39.8-13.9-55.5-29.8-88.2-96.1-162.9-180-203-30.8-14.7-67.9-26.4-95.5-30-1.9-.3-4.6-.7-6-1-1.3-.2-5.2-.7-8.6-1.1-3.3-.3-7.4-.8-9-1-3.3-.5-54-1.4-54.6-1zm54.7 27.9c1.7.3 6.8 1.1 11.5 1.7 4.7.5 9.5 1.2 10.6 1.4 1.2.3 3.7.7 5.5 1 14.8 2.5 38.1 9.1 54.4 15.3 105.7 40.6 182.2 131.9 202.9 242 1.4 7.1 2.7 15.3 3.1 18.3.3 3 .9 6.8 1.1 8.5.9 5.3 1.2 55.8.4 62.5-.4 3.6-1.1 9-1.4 12.1-.4 3.1-.8 6.5-1 7.5-.2 1.1-.7 3.9-1.2 6.4-.4 2.5-.8 4.7-.9 5-.1.3-.5 2.5-.9 5-2.5 13.9-10.3 39.9-17.1 56.5-10.3 25.2-26.3 53.5-40.6 71.8-2.2 2.8-5.3 6.8-6.7 8.7-11.1 14.4-31.2 34.6-48.5 48.8-41.9 34.3-97.4 59.5-149.2 67.7-10.5 1.7-16.9 2.6-21.5 3.1-8.9 1-54.9 1.3-62 .4-3.6-.4-9.2-1.1-12.5-1.5-3.3-.3-6.7-.8-7.5-1-.8-.2-3.2-.6-5.4-1-22.8-3.3-54.9-13.2-78.7-24.1-12-5.5-26.2-12.9-30.1-15.5-1.4-1.1-2.8-1.9-3.1-1.9-1 0-22.2-14.3-28.7-19.4-31.5-24.5-54.7-49.4-75-80.1-11.6-17.7-19.6-32.8-30-57-8.7-20.4-17.6-54.9-20.5-79.5-.3-2.5-1-7.7-1.4-11.5-1-7.7-.7-55 .3-63 .4-2.8.9-6.6 1.1-8.5 10-80.7 53.2-157.6 117.6-209.4 31.4-25.2 63.7-42.9 101.4-55.4 10.7-3.6 31.7-9.2 40-10.6 6.8-1.3 23.5-3.5 30-4.2 3.9-.3 7.2-.8 7.4-1 .6-.5 53.3.3 56.6.9z"/><path d="M348.8 136.4c-.1.2-6 .6-13 1-6.9.3-13.2.8-14 1-.7.3-3.1.7-5.3 1-17.4 2.4-39.5 9.2-58.1 18.1-65.3 31-112 95.6-119.9 166-.4 3.3-.9 7.1-1.1 8.5-.5 2.9-.5 29.9 0 35 .5 5.7 1.8 16.3 2.2 18.5.2 1.1.7 3.3 1 5 1.3 7.8 5.7 23.5 9 32.3 22.9 61.7 71 108.5 132.4 129.1 13 4.4 14.4 4.7 23.5 6.6 17.3 3.6 25.8 4.3 47 4 24.3-.4 24.3-.4 51.3-6.1 1.2-.2 6.9-2 12.5-3.8 61.6-20.2 110-66.7 133.7-128.5 2.5-6.5 7.9-25.3 8.6-30.1.3-1.9.9-5.1 1.4-7 .5-1.9 1.2-6.4 1.5-10 .4-3.6.9-7.6 1.1-9 .5-3.5.5-33.1 0-35.5-.2-1.1-.7-5.1-1.1-8.9-.9-9.3-1.1-10.2-4.5-24.1-6.8-28.6-19.6-55.2-38-79.6-5.8-7.6-25.4-28.1-32.3-33.7-25.6-20.8-53.6-35.1-84.2-42.9-5.5-1.4-10.9-2.6-12-2.8-1.1-.1-3.6-.5-5.5-.9-1.9-.3-4.8-.8-6.5-1.1-1.6-.3-8.4-.8-15-1.1-6.6-.3-12.5-.7-13.2-.9-.6-.2-1.3-.2-1.5-.1z"/></svg>